<?xml version="1.0" encoding="utf-8"?>
<!-- Generator: Adobe Illustrator 24.1.2, SVG Export Plug-In . SVG Version: 6.00 Build 0)  -->
<svg version="1.1" id="Layer_1" xmlns="http://www.w3.org/2000/svg" xmlns:xlink="http://www.w3.org/1999/xlink" x="0px" y="0px"
	 viewBox="0 0 360 216" style="enable-background:new 0 0 360 216;" xml:space="preserve">
<style type="text/css">
	.st0{fill:#DA1F26;}
</style>
<path class="st0" d="M174.62,182.79c-11.44,0-22.9,0.42-34.33-0.09c-23.12-1.03-40.97-11.49-53.09-31.34
	c-6.47-10.6-9.43-22.27-8.82-34.6c0.94-19.04,8.69-34.94,23.54-47.11c8.68-7.11,18.61-11.62,29.7-13.43
	c6.05-0.99,12.15-1.07,18.24-0.33c1.71,0.21,2.92-0.18,4.22-1.44c12.93-12.52,28.35-20.05,46.33-21.2
	c29.62-1.91,52.96,9.7,69.46,34.38c8.73,13.06,12.72,27.8,11.66,43.44c-2.04,29.97-16.71,51.81-43.84,64.95
	c-10.72,5.19-22.22,6.96-34.08,6.83c-9.66-0.11-19.33-0.02-28.99-0.02C174.62,182.82,174.62,182.8,174.62,182.79z M167.64,60.89
	c4.19,2.6,7.83,4.78,11.38,7.1c1.19,0.78,2.03,0.75,3.26,0.03c14.65-8.61,29.84-9.23,45.05-2.02c17.09,8.1,29.77,28.11,25.37,50.51
	c-3.71,18.88-18.26,34.26-36.71,37.63c-13.26,2.43-25.85,0.37-36.68-7.99c-5.4-4.17-10.03-9.34-14.92-14.15
	c-6.48-6.37-12.8-12.9-19.33-19.23c-2.91-2.83-7.23-2.5-9.89,0.37c-2.74,2.96-2.6,6.94,0.37,9.88c9.85,9.74,19.61,19.57,29.61,29.15
	c3.6,3.45,7.43,6.95,11.77,9.27c19.7,10.51,39.74,10.35,59.26-0.24c23.97-13,36.12-40.97,29.52-67.43
	c-5.5-22.08-19.44-36.88-40.98-43.88c-15.91-5.16-31.66-3.63-46.55,4.28C174.57,56.08,171.26,58.56,167.64,60.89z M162.44,168.85
	c0.06-0.17,0.12-0.34,0.17-0.51c-0.25-0.27-0.48-0.56-0.74-0.81c-4.05-3.85-8.04-7.78-12.21-11.5c-0.98-0.87-2.56-1.3-3.92-1.44
	c-3.78-0.39-7.67-0.12-11.38-0.83c-18.21-3.48-31.1-22.71-27.43-41c2.73-13.57,10.86-22.94,23.94-27.26
	c13.48-4.45,25.76-1.58,36.07,8.34c6.77,6.52,13.41,13.18,19.89,19.98c3.04,3.18,7.9,2.25,9.95,0.2c2.83-2.82,2.81-6.84-0.19-9.86
	c-6.85-6.9-13.59-13.9-20.64-20.58c-11.57-10.96-25.23-15.85-41.21-13.17c-16.26,2.73-28.65,11.14-36.33,25.82
	c-7.27,13.89-7.71,28.33-1.47,42.68c6.77,15.56,18.69,25.35,35.34,28.69c5.91,1.19,12.12,0.96,18.2,1.21
	C154.47,168.99,158.46,168.85,162.44,168.85z"/>
</svg>
